<svg xmlns="http://www.w3.org/2000/svg" xmlns:xlink="http://www.w3.org/1999/xlink" width="100" zoomAndPan="magnify" viewBox="0 0 75 74.999997" height="100" preserveAspectRatio="xMidYMid meet" version="1.0"><defs><clipPath id="923c7feff6"><path d="M 22 22 L 48 22 L 48 48 L 22 48 Z M 22 22 " clip-rule="nonzero"/></clipPath><clipPath id="cab59faa61"><path d="M 16.285156 37.5 L 37.5 16.285156 L 58.714844 37.5 L 37.5 58.714844 Z M 16.285156 37.5 " clip-rule="nonzero"/></clipPath><clipPath id="0946fffec8"><path d="M 16.285156 37.5 L 37.5 16.285156 L 58.714844 37.5 L 37.5 58.714844 Z M 16.285156 37.5 " clip-rule="nonzero"/></clipPath><clipPath id="058d9405bb"><path d="M 27 27 L 53 27 L 53 53 L 27 53 Z M 27 27 " clip-rule="nonzero"/></clipPath><clipPath id="5b94f1393d"><path d="M 16.285156 37.5 L 37.5 16.285156 L 58.714844 37.5 L 37.5 58.714844 Z M 16.285156 37.5 " clip-rule="nonzero"/></clipPath><clipPath id="312ef0b4b5"><path d="M 16.285156 37.5 L 37.5 16.285156 L 58.714844 37.5 L 37.5 58.714844 Z M 16.285156 37.5 " clip-rule="nonzero"/></clipPath><clipPath id="04ad6f2146"><path d="M 25 39 L 35 39 L 35 50 L 25 50 Z M 25 39 " clip-rule="nonzero"/></clipPath><clipPath id="60284f5dc0"><path d="M 16.285156 37.5 L 37.5 16.285156 L 58.714844 37.5 L 37.5 58.714844 Z M 16.285156 37.5 " clip-rule="nonzero"/></clipPath><clipPath id="44c980d47a"><path d="M 16.285156 37.5 L 37.5 16.285156 L 58.714844 37.5 L 37.5 58.714844 Z M 16.285156 37.5 " clip-rule="nonzero"/></clipPath><clipPath id="a66878f6e9"><path d="M 32 32 L 43 32 L 43 43 L 32 43 Z M 32 32 " clip-rule="nonzero"/></clipPath><clipPath id="fb4c1b58f9"><path d="M 16.285156 37.5 L 37.5 16.285156 L 58.714844 37.5 L 37.5 58.714844 Z M 16.285156 37.5 " clip-rule="nonzero"/></clipPath><clipPath id="0fdee76bba"><path d="M 16.285156 37.5 L 37.5 16.285156 L 58.714844 37.5 L 37.5 58.714844 Z M 16.285156 37.5 " clip-rule="nonzero"/></clipPath><clipPath id="41c12fd69b"><path d="M 39 25 L 50 25 L 50 35 L 39 35 Z M 39 25 " clip-rule="nonzero"/></clipPath><clipPath id="91a885a403"><path d="M 16.285156 37.5 L 37.5 16.285156 L 58.714844 37.5 L 37.5 58.714844 Z M 16.285156 37.5 " clip-rule="nonzero"/></clipPath><clipPath id="8642e9dc34"><path d="M 16.285156 37.5 L 37.5 16.285156 L 58.714844 37.5 L 37.5 58.714844 Z M 16.285156 37.5 " clip-rule="nonzero"/></clipPath><clipPath id="051ce2bf1d"><path d="M 26 26 L 49 26 L 49 49 L 26 49 Z M 26 26 " clip-rule="nonzero"/></clipPath><clipPath id="6c4e45bb77"><path d="M 16.285156 37.5 L 37.5 16.285156 L 58.714844 37.5 L 37.5 58.714844 Z M 16.285156 37.5 " clip-rule="nonzero"/></clipPath><clipPath id="ab9867ec96"><path d="M 16.285156 37.5 L 37.5 16.285156 L 58.714844 37.5 L 37.5 58.714844 Z M 16.285156 37.5 " clip-rule="nonzero"/></clipPath></defs><rect x="-7.5" width="90" fill="#ffffff" y="-7.5" height="89.999996" fill-opacity="1"/><rect x="-7.5" width="90" fill="#ffffff" y="-7.5" height="89.999996" fill-opacity="1"/><g clip-path="url(#923c7feff6)"><g clip-path="url(#cab59faa61)"><g clip-path="url(#0946fffec8)"><path fill="#c00d0d" d="M 47.191406 26.046875 L 40.238281 33 L 40.101562 32.925781 C 38.050781 31.757812 35.449219 32.105469 33.777344 33.777344 C 32.109375 35.449219 31.757812 38.050781 32.925781 40.101562 L 33 40.238281 L 26.046875 47.191406 L 25.90625 47.019531 C 25.722656 46.796875 25.542969 46.566406 25.371094 46.332031 C 23.285156 43.472656 22.28125 39.945312 22.539062 36.398438 C 22.667969 34.640625 23.097656 32.941406 23.820312 31.339844 C 24.5625 29.683594 25.597656 28.1875 26.894531 26.894531 C 28.1875 25.597656 29.683594 24.5625 31.339844 23.820312 C 32.941406 23.097656 34.640625 22.667969 36.398438 22.539062 C 39.945312 22.28125 43.472656 23.285156 46.332031 25.371094 C 46.5625 25.539062 46.792969 25.71875 47.019531 25.90625 Z M 40.167969 32.5 L 46.589844 26.078125 C 46.421875 25.945312 46.257812 25.820312 46.09375 25.699219 C 40.253906 21.4375 32.300781 22.058594 27.179688 27.179688 C 22.058594 32.300781 21.4375 40.253906 25.699219 46.09375 C 25.820312 46.261719 25.949219 46.425781 26.078125 46.589844 L 32.5 40.167969 C 32.234375 39.671875 32.046875 39.140625 31.9375 38.585938 C 31.820312 37.988281 31.800781 37.382812 31.878906 36.777344 C 31.957031 36.167969 32.132812 35.582031 32.398438 35.03125 C 32.671875 34.460938 33.042969 33.945312 33.492188 33.492188 C 33.945312 33.042969 34.460938 32.671875 35.03125 32.398438 C 35.582031 32.132812 36.167969 31.957031 36.777344 31.878906 C 37.382812 31.800781 37.988281 31.820312 38.585938 31.9375 C 39.140625 32.046875 39.671875 32.234375 40.167969 32.5 Z M 40.167969 32.5 " fill-opacity="1" fill-rule="nonzero"/></g></g></g><g clip-path="url(#058d9405bb)"><g clip-path="url(#5b94f1393d)"><g clip-path="url(#312ef0b4b5)"><path fill="#c00d0d" d="M 48.105469 48.105469 C 46.8125 49.402344 45.316406 50.4375 43.660156 51.179688 C 42.058594 51.902344 40.359375 52.332031 38.601562 52.460938 C 35.054688 52.71875 31.527344 51.714844 28.667969 49.628906 C 28.351562 49.394531 28.035156 49.144531 27.738281 48.886719 L 27.570312 48.746094 L 34.492188 41.824219 L 34.632812 41.914062 C 36.699219 43.261719 39.472656 42.96875 41.222656 41.222656 C 42.96875 39.472656 43.261719 36.699219 41.914062 34.632812 L 41.824219 34.492188 L 48.746094 27.570312 L 48.886719 27.738281 C 49.144531 28.035156 49.394531 28.351562 49.628906 28.667969 C 51.714844 31.527344 52.71875 35.054688 52.460938 38.601562 C 52.332031 40.359375 51.902344 42.058594 51.179688 43.660156 C 50.4375 45.316406 49.402344 46.8125 48.105469 48.105469 Z M 28.167969 48.722656 C 28.40625 48.921875 28.65625 49.117188 28.90625 49.300781 C 34.746094 53.5625 42.699219 52.941406 47.820312 47.820312 C 52.941406 42.699219 53.5625 34.746094 49.300781 28.90625 C 49.117188 28.65625 48.921875 28.40625 48.722656 28.167969 L 42.339844 34.550781 C 42.976562 35.59375 43.261719 36.832031 43.140625 38.058594 C 43.078125 38.699219 42.90625 39.316406 42.636719 39.894531 C 42.359375 40.492188 41.980469 41.035156 41.507812 41.507812 C 41.035156 41.980469 40.492188 42.359375 39.894531 42.636719 C 39.316406 42.90625 38.699219 43.078125 38.058594 43.140625 C 36.832031 43.261719 35.59375 42.976562 34.550781 42.339844 Z M 28.167969 48.722656 " fill-opacity="1" fill-rule="nonzero"/></g></g></g><g clip-path="url(#04ad6f2146)"><g clip-path="url(#60284f5dc0)"><g clip-path="url(#44c980d47a)"><path fill="#c00d0d" d="M 34.839844 42.046875 L 27.878906 49.011719 L 27.738281 48.886719 C 27.449219 48.640625 27.164062 48.378906 26.894531 48.105469 C 26.546875 47.761719 26.214844 47.394531 25.90625 47.019531 L 25.789062 46.875 L 32.792969 39.871094 L 32.925781 40.101562 C 33.15625 40.511719 33.445312 40.886719 33.777344 41.222656 C 34.039062 41.480469 34.324219 41.714844 34.632812 41.914062 Z M 27.859375 48.457031 L 34.203125 42.113281 C 33.953125 41.929688 33.714844 41.726562 33.492188 41.507812 C 33.195312 41.210938 32.933594 40.882812 32.710938 40.527344 L 26.335938 46.902344 C 26.601562 47.21875 26.886719 47.527344 27.179688 47.820312 C 27.398438 48.039062 27.628906 48.253906 27.859375 48.457031 Z M 27.859375 48.457031 " fill-opacity="1" fill-rule="nonzero"/></g></g></g><g clip-path="url(#a66878f6e9)"><g clip-path="url(#fb4c1b58f9)"><g clip-path="url(#0fdee76bba)"><path fill="#c00d0d" d="M 40.695312 40.695312 C 39.980469 41.414062 39.070312 41.859375 38.070312 41.984375 C 37.097656 42.109375 36.097656 41.910156 35.253906 41.425781 C 34.90625 41.226562 34.589844 40.980469 34.304688 40.695312 C 33.9375 40.328125 33.636719 39.90625 33.414062 39.441406 C 33.019531 38.605469 32.886719 37.679688 33.039062 36.761719 C 33.191406 35.828125 33.628906 34.976562 34.304688 34.304688 C 34.976562 33.628906 35.828125 33.191406 36.761719 33.039062 C 37.679688 32.886719 38.605469 33.019531 39.441406 33.414062 C 39.90625 33.636719 40.328125 33.9375 40.695312 34.304688 C 40.980469 34.589844 41.226562 34.90625 41.425781 35.253906 C 41.910156 36.097656 42.109375 37.097656 41.984375 38.070312 C 41.859375 39.070312 41.414062 39.980469 40.695312 40.695312 Z M 34.589844 34.589844 C 33.359375 35.816406 33.035156 37.699219 33.78125 39.265625 C 33.984375 39.691406 34.253906 40.074219 34.589844 40.410156 C 34.847656 40.667969 35.140625 40.894531 35.453125 41.074219 C 37.0625 41.996094 39.097656 41.722656 40.410156 40.410156 C 41.722656 39.097656 41.996094 37.0625 41.074219 35.453125 C 40.894531 35.140625 40.667969 34.847656 40.410156 34.589844 C 40.074219 34.253906 39.691406 33.984375 39.265625 33.78125 C 37.699219 33.035156 35.820312 33.359375 34.589844 34.589844 Z M 34.589844 34.589844 " fill-opacity="1" fill-rule="nonzero"/></g></g></g><g clip-path="url(#41c12fd69b)"><g clip-path="url(#91a885a403)"><g clip-path="url(#8642e9dc34)"><path fill="#c00d0d" d="M 49.011719 27.878906 L 42.046875 34.839844 L 41.914062 34.632812 C 41.714844 34.324219 41.480469 34.039062 41.222656 33.777344 C 40.886719 33.445312 40.511719 33.15625 40.101562 32.925781 L 39.871094 32.792969 L 46.875 25.789062 L 47.019531 25.90625 C 47.394531 26.214844 47.761719 26.546875 48.105469 26.894531 C 48.378906 27.164062 48.640625 27.449219 48.886719 27.738281 Z M 42.113281 34.203125 L 48.457031 27.859375 C 48.253906 27.628906 48.039062 27.398438 47.820312 27.179688 C 47.527344 26.886719 47.21875 26.601562 46.902344 26.335938 L 40.527344 32.710938 C 40.882812 32.933594 41.210938 33.195312 41.507812 33.492188 C 41.726562 33.714844 41.929688 33.953125 42.113281 34.203125 Z M 42.113281 34.203125 " fill-opacity="1" fill-rule="nonzero"/></g></g></g><g clip-path="url(#051ce2bf1d)"><g clip-path="url(#6c4e45bb77)"><g clip-path="url(#ab9867ec96)"><path stroke-linecap="butt" transform="matrix(0.0114493, -0.0114493, 0.0114493, 0.0114493, 14.601464, 37.499996)" fill="none" stroke-linejoin="miter" d="M 1325.484751 910.611375 C 1286.249159 767.657352 1155.406992 662.403613 999.999933 662.574203 C 844.592874 662.403613 713.750706 767.657352 674.515115 910.611375 C 666.667997 938.929237 662.573848 968.952994 662.573848 1000.000288 C 662.403259 1024.053411 664.962101 1047.424176 669.738608 1069.941994 C 701.980029 1222.9608 837.598703 1337.426372 999.999933 1337.426372 C 1162.401163 1337.426372 1298.019837 1222.9608 1330.261257 1069.941994 C 1335.037764 1047.424176 1337.596607 1024.053411 1337.426017 1000.000288 C 1337.426017 968.952994 1333.331869 938.929237 1325.484751 910.611375 Z M 1257.419529 1070.112583 C 1226.713414 1183.384029 1123.165571 1266.802308 999.999933 1266.802308 C 876.834294 1266.802308 773.286451 1183.384029 742.580336 1070.112583 C 736.609703 1047.765355 733.197912 1024.224 733.197912 1000.000288 C 733.197912 968.611815 738.656777 938.588058 748.55097 910.611375 C 785.398308 807.234122 883.999054 733.198267 999.999933 733.198267 C 1116.000811 733.198267 1214.601558 807.234122 1251.448896 910.611375 C 1261.343088 938.588058 1266.801953 968.611815 1266.801953 1000.000288 C 1266.801953 1024.224 1263.390163 1047.765355 1257.419529 1070.112583 Z M 1257.419529 1070.112583 " stroke="#000000" stroke-width="25" stroke-opacity="1" stroke-miterlimit="10"/></g></g></g></svg>