<svg opacity="0.4" xmlns="http://www.w3.org/2000/svg" xmlns:xlink="http://www.w3.org/1999/xlink" width="100" zoomAndPan="magnify" viewBox="0 0 75 74.999997" height="100" preserveAspectRatio="xMidYMid meet" version="1.0"><defs><clipPath id="e380152269"><path d="M 22 22 L 49 22 L 49 45 L 22 45 Z M 22 22 " clip-rule="nonzero"/></clipPath><clipPath id="9281b86f23"><path d="M 16.585938 33.960938 L 41.039062 16.585938 L 58.414062 41.039062 L 33.960938 58.414062 Z M 16.585938 33.960938 " clip-rule="nonzero"/></clipPath><clipPath id="f9e246dfc2"><path d="M 16.585938 33.960938 L 41.039062 16.585938 L 58.414062 41.039062 L 33.960938 58.414062 Z M 16.585938 33.960938 " clip-rule="nonzero"/></clipPath><clipPath id="f187be0a36"><path d="M 25 29 L 53 29 L 53 53 L 25 53 Z M 25 29 " clip-rule="nonzero"/></clipPath><clipPath id="7f153784fa"><path d="M 16.585938 33.960938 L 41.039062 16.585938 L 58.414062 41.039062 L 33.960938 58.414062 Z M 16.585938 33.960938 " clip-rule="nonzero"/></clipPath><clipPath id="ed0e0505ff"><path d="M 16.585938 33.960938 L 41.039062 16.585938 L 58.414062 41.039062 L 33.960938 58.414062 Z M 16.585938 33.960938 " clip-rule="nonzero"/></clipPath><clipPath id="522ae4af0d"><path d="M 24 27 L 51 27 L 51 48 L 24 48 Z M 24 27 " clip-rule="nonzero"/></clipPath><clipPath id="fcf2ab5910"><path d="M 16.585938 33.960938 L 41.039062 16.585938 L 58.414062 41.039062 L 33.960938 58.414062 Z M 16.585938 33.960938 " clip-rule="nonzero"/></clipPath><clipPath id="acbcf634bc"><path d="M 16.585938 33.960938 L 41.039062 16.585938 L 58.414062 41.039062 L 33.960938 58.414062 Z M 16.585938 33.960938 " clip-rule="nonzero"/></clipPath><clipPath id="49f8529cfa"><path d="M 31 31 L 44 31 L 44 44 L 31 44 Z M 31 31 " clip-rule="nonzero"/></clipPath><clipPath id="6013514344"><path d="M 16.585938 33.960938 L 41.039062 16.585938 L 58.414062 41.039062 L 33.960938 58.414062 Z M 16.585938 33.960938 " clip-rule="nonzero"/></clipPath><clipPath id="51e03a290a"><path d="M 16.585938 33.960938 L 41.039062 16.585938 L 58.414062 41.039062 L 33.960938 58.414062 Z M 16.585938 33.960938 " clip-rule="nonzero"/></clipPath><clipPath id="c82b825066"><path d="M 33 33 L 42 33 L 42 42 L 33 42 Z M 33 33 " clip-rule="nonzero"/></clipPath><clipPath id="0fa0e4268e"><path d="M 16.585938 33.960938 L 41.039062 16.585938 L 58.414062 41.039062 L 33.960938 58.414062 Z M 16.585938 33.960938 " clip-rule="nonzero"/></clipPath><clipPath id="bdc9cddff0"><path d="M 16.585938 33.960938 L 41.039062 16.585938 L 58.414062 41.039062 L 33.960938 58.414062 Z M 16.585938 33.960938 " clip-rule="nonzero"/></clipPath></defs><rect x="-7.5" width="90" fill="#ffffff" y="-7.5" height="89.999996" fill-opacity="1"/><rect x="-7.5" width="90" fill="#ffffff" y="-7.5" height="89.999996" fill-opacity="1"/><g clip-path="url(#e380152269)"><g clip-path="url(#9281b86f23)"><g clip-path="url(#f9e246dfc2)"><path fill="#c00d0d" d="M 48.820312 27.65625 L 24.480469 44.949219 C 24.335938 44.699219 24.199219 44.441406 24.070312 44.183594 C 20.824219 37.683594 22.703125 29.613281 28.8125 25.273438 C 34.917969 20.933594 43.160156 21.8125 48.230469 27.015625 C 48.433594 27.222656 48.628906 27.4375 48.820312 27.65625 Z M 48.820312 27.65625 " fill-opacity="1" fill-rule="nonzero"/></g></g></g><g clip-path="url(#f187be0a36)"><g clip-path="url(#7f153784fa)"><g clip-path="url(#ed0e0505ff)"><path fill="#f6f0da" d="M 50.359375 29.773438 C 50.5625 30.117188 50.753906 30.464844 50.929688 30.816406 C 54.175781 37.316406 52.296875 45.386719 46.1875 49.726562 C 40.082031 54.066406 31.839844 53.1875 26.769531 47.984375 C 26.496094 47.703125 26.230469 47.40625 25.972656 47.101562 Z M 50.359375 29.773438 " fill-opacity="1" fill-rule="nonzero"/></g></g></g><g clip-path="url(#522ae4af0d)"><g clip-path="url(#fcf2ab5910)"><g clip-path="url(#acbcf634bc)"><path fill="#a6a6a6" d="M 49.726562 28.8125 C 49.953125 29.125 50.160156 29.449219 50.359375 29.773438 L 25.972656 47.101562 C 25.730469 46.808594 25.496094 46.503906 25.273438 46.1875 C 24.984375 45.785156 24.722656 45.371094 24.480469 44.949219 L 48.820312 27.65625 C 49.136719 28.023438 49.441406 28.40625 49.726562 28.8125 Z M 49.726562 28.8125 " fill-opacity="1" fill-rule="nonzero"/></g></g></g><g clip-path="url(#49f8529cfa)"><g clip-path="url(#6013514344)"><g clip-path="url(#51e03a290a)"><path fill="#ffffff" d="M 42.015625 34.292969 C 42.226562 34.589844 42.40625 34.902344 42.554688 35.234375 C 42.703125 35.566406 42.820312 35.910156 42.898438 36.265625 C 42.980469 36.617188 43.027344 36.976562 43.039062 37.339844 C 43.046875 37.703125 43.023438 38.066406 42.960938 38.425781 C 42.902344 38.78125 42.804688 39.132812 42.675781 39.472656 C 42.546875 39.8125 42.386719 40.136719 42.191406 40.445312 C 42 40.753906 41.777344 41.039062 41.527344 41.304688 C 41.277344 41.566406 41.003906 41.804688 40.707031 42.015625 C 40.414062 42.226562 40.097656 42.40625 39.765625 42.554688 C 39.433594 42.703125 39.089844 42.820312 38.738281 42.898438 C 38.382812 42.980469 38.023438 43.027344 37.660156 43.039062 C 37.296875 43.046875 36.933594 43.023438 36.574219 42.960938 C 36.21875 42.902344 35.867188 42.804688 35.527344 42.675781 C 35.1875 42.546875 34.863281 42.386719 34.554688 42.191406 C 34.246094 42 33.960938 41.777344 33.695312 41.527344 C 33.433594 41.277344 33.195312 41.003906 32.984375 40.707031 C 32.773438 40.414062 32.59375 40.097656 32.445312 39.765625 C 32.296875 39.433594 32.179688 39.089844 32.101562 38.738281 C 32.019531 38.382812 31.972656 38.023438 31.964844 37.660156 C 31.953125 37.296875 31.976562 36.933594 32.039062 36.574219 C 32.097656 36.21875 32.195312 35.867188 32.324219 35.527344 C 32.453125 35.1875 32.613281 34.863281 32.808594 34.554688 C 33 34.246094 33.222656 33.960938 33.472656 33.695312 C 33.722656 33.433594 33.996094 33.195312 34.292969 32.984375 C 34.589844 32.773438 34.902344 32.59375 35.234375 32.445312 C 35.566406 32.296875 35.910156 32.179688 36.265625 32.101562 C 36.617188 32.019531 36.976562 31.972656 37.339844 31.964844 C 37.703125 31.953125 38.066406 31.976562 38.425781 32.039062 C 38.78125 32.097656 39.132812 32.195312 39.472656 32.324219 C 39.8125 32.453125 40.136719 32.613281 40.445312 32.808594 C 40.753906 33 41.039062 33.222656 41.304688 33.472656 C 41.566406 33.722656 41.804688 33.996094 42.015625 34.292969 Z M 42.015625 34.292969 " fill-opacity="1" fill-rule="nonzero"/></g></g></g><g clip-path="url(#c82b825066)"><g clip-path="url(#0fa0e4268e)"><g clip-path="url(#bdc9cddff0)"><path fill="#c00d0d" d="M 41.070312 34.964844 C 41.234375 35.199219 41.378906 35.445312 41.496094 35.710938 C 41.613281 35.972656 41.703125 36.242188 41.765625 36.523438 C 41.832031 36.804688 41.867188 37.085938 41.875 37.375 C 41.882812 37.660156 41.863281 37.945312 41.816406 38.230469 C 41.769531 38.515625 41.691406 38.789062 41.589844 39.058594 C 41.488281 39.328125 41.359375 39.582031 41.207031 39.828125 C 41.054688 40.070312 40.878906 40.296875 40.683594 40.503906 C 40.484375 40.714844 40.269531 40.902344 40.035156 41.070312 C 39.800781 41.234375 39.554688 41.378906 39.289062 41.496094 C 39.027344 41.613281 38.757812 41.703125 38.476562 41.765625 C 38.195312 41.832031 37.914062 41.867188 37.625 41.875 C 37.339844 41.882812 37.054688 41.863281 36.769531 41.816406 C 36.484375 41.769531 36.210938 41.691406 35.941406 41.589844 C 35.671875 41.488281 35.417969 41.359375 35.171875 41.207031 C 34.929688 41.054688 34.703125 40.878906 34.496094 40.683594 C 34.285156 40.484375 34.097656 40.269531 33.929688 40.035156 C 33.765625 39.800781 33.621094 39.554688 33.503906 39.289062 C 33.386719 39.027344 33.296875 38.757812 33.234375 38.476562 C 33.167969 38.195312 33.132812 37.914062 33.125 37.625 C 33.117188 37.339844 33.136719 37.054688 33.183594 36.769531 C 33.230469 36.484375 33.308594 36.210938 33.410156 35.941406 C 33.511719 35.671875 33.640625 35.417969 33.792969 35.171875 C 33.945312 34.929688 34.121094 34.703125 34.316406 34.496094 C 34.515625 34.285156 34.730469 34.097656 34.964844 33.929688 C 35.199219 33.765625 35.445312 33.625 35.710938 33.503906 C 35.972656 33.386719 36.242188 33.296875 36.523438 33.234375 C 36.804688 33.167969 37.085938 33.132812 37.375 33.125 C 37.660156 33.117188 37.945312 33.136719 38.230469 33.183594 C 38.515625 33.230469 38.789062 33.308594 39.058594 33.410156 C 39.328125 33.511719 39.582031 33.640625 39.828125 33.792969 C 40.070312 33.945312 40.296875 34.121094 40.503906 34.316406 C 40.714844 34.515625 40.902344 34.730469 41.070312 34.964844 Z M 41.070312 34.964844 " fill-opacity="1" fill-rule="nonzero"/></g></g></g></svg>